<?xml version="1.0" encoding="utf-8"?>
<!-- Generator: Adobe Illustrator 21.1.0, SVG Export Plug-In . SVG Version: 6.00 Build 0)  -->
<svg version="1.1" id="Capa_1" xmlns="http://www.w3.org/2000/svg" xmlns:xlink="http://www.w3.org/1999/xlink" x="0px" y="0px"
	 viewBox="0 0 1920 1080" style="enable-background:new 0 0 1920 1080;" xml:space="preserve">
<style type="text/css">
	.st0{fill:#FFFFFF;}
</style>
<g>
	<polygon class="st0" points="1602.4,615.9 1723.3,736.8 1755.7,704.5 1634.8,583.5 1755.7,462.6 1723.3,430.3 1602.4,551.2 
		1481.5,430.3 1449.1,462.6 1570.1,583.5 1449.1,704.5 1481.5,736.8 	"/>
	<path class="st0" d="M1185.8,557.8c11.7-47.1,53.9-80,102.6-80c48.6,0,90.8,32.9,102.5,80l0.7,2.8h-206.5L1185.8,557.8z
		 M1427.7,643.6h-52.4l-1.4,1.9c-19.9,27.4-51.8,43.7-85.5,43.7c-48.7,0-90.8-32.9-102.6-80.1l-0.7-2.8h253l0.5-4
		c0.9-6.7,1.3-12.9,1.3-18.9c0-83.6-68-151.5-151.5-151.5c-83.6,0-151.5,68-151.5,151.5c0,83.5,68,151.5,151.5,151.5
		c58.2,0,110.4-32.5,136-84.8L1427.7,643.6z"/>
	<path class="st0" d="M610.5,689C552.3,689,505,641.8,505,583.5c0-58.3,47.2-105.6,105.5-105.6c58.3,0,105.5,47.2,105.5,105.6
		C716.1,641.8,668.8,689,610.5,689 M762,583.5c0-83.7-67.8-151.5-151.5-151.5S459,499.8,459,583.5c0,83.6,67.8,151.5,151.5,151.5
		c41,0,78.2-16.4,105.5-42.8v42.2h46V583.5z"/>
	<path class="st0" d="M852.5,583.5c0-58.3,47.2-105.6,105.5-105.6c58.3,0,105.5,47.2,105.5,105.6c0,58.3-47.2,105.5-105.5,105.5
		C899.7,689,852.5,641.8,852.5,583.5 M806.5,891.4h46V692.2C879.7,718.6,916.9,735,958,735c83.7,0,151.5-67.8,151.5-151.5
		c0-83.7-67.8-151.5-151.5-151.5s-151.5,67.8-151.5,151.5L806.5,891.4z"/>
	<path class="st0" d="M793.7,400.3l30.9-30.9c-54.8-54.8-130.5-88.7-214.1-88.7c-167.2,0-302.7,135.6-302.7,302.8h43.7
		c0-143.1,115.9-259,259-259C682,324.5,746.8,353.5,793.7,400.3"/>
	<path class="st0" d="M278.5,583.5c0-183.4,148.6-332,332-332c91.7,0,174.7,37.2,234.7,97.2l82.4-82.4
		c-81.2-81.2-193.3-131.4-317.2-131.4v72.8c-103.8,0-197.7,42.1-265.7,110.1l-20.5-20.5c-73.2,73.2-118.5,174.4-118.5,286.2
		c0,111.7,45.3,212.9,118.5,286.1l30.5-30.5c65.4,65.5,155.8,105.9,255.7,105.9v-29.6C427.2,915.5,278.5,766.8,278.5,583.5"/>
</g>
</svg>
